<?xml version="1.0" standalone="no"?><!DOCTYPE svg PUBLIC "-//W3C//DTD SVG 1.1//EN" "http://www.w3.org/Graphics/SVG/1.1/DTD/svg11.dtd"><svg width="100%" height="100%" viewBox="0 0 38 38" version="1.1" xmlns="http://www.w3.org/2000/svg" xmlns:xlink="http://www.w3.org/1999/xlink" xml:space="preserve" style="fill-rule:evenodd;clip-rule:evenodd;stroke-linejoin:round;stroke-miterlimit:1.41421;"><path d="M38,4.94c0,-2.726 -2.213,-4.94 -4.939,-4.94l-28.121,0c-2.726,0 -4.94,2.214 -4.94,4.94l0,28.121c0,2.726 2.214,4.939 4.94,4.939l28.121,0c2.726,0 4.939,-2.213 4.939,-4.939l0,-28.121l0,0Z" style="fill:#dc6373;"/><g id="frontend icon"><path d="M34.144,21.915c-1.49,-6.253 -7.946,-11.329 -15.552,-11.329c-7.607,0 -14.063,5.076 -15.552,11.329c3.725,2.471 9.411,4.476 15.552,4.476c6.141,0 11.828,-2.005 15.552,-4.476Z" style="fill:#eaeaea;"/><path d="M34.144,21.915c-1.49,-6.253 -7.946,-11.329 -15.552,-11.329c-7.607,0 -14.063,5.076 -15.552,11.329c3.136,-3.466 9.025,-6.281 15.552,-6.281c6.528,0 12.417,2.815 15.552,6.281Z" style="fill:#d9d9d9;"/><circle cx="18.592" cy="19" r="7.386" style="fill:#879ac5;"/><path d="M25.605,16.73c-0.829,-2.791 -3.579,-5.11 -7.013,-5.11c-3.433,0 -6.152,2.27 -7.029,5.11c1.921,-0.73 4.413,-1.182 7.029,-1.182c2.615,0 5.093,0.452 7.013,1.182l0,0Z" style="fill:#7e96c2;"/><circle cx="18.592" cy="19" r="3.208" style="fill:#666;"/><path d="M34.144,21.915c-1.296,-6.581 -7.818,-11.923 -15.552,-11.923c-7.734,0 -14.257,5.342 -15.552,11.923c2.025,-5.346 8.297,-9.686 15.552,-9.686c7.256,0 13.527,4.34 15.552,9.686Z" style="fill:#708ec5;"/></g></svg>